# xmcd
#
# Track frame offsets:
#	150
#	25126
#	37638
#	56663
#	69647
#	90356
#	102415
#	129189
#	159813
#
# Disc length: 2257 seconds
#
# Revision: 1
# Processed by: cddbd v1.5.2PL0 Copyright (c) Steve Scherf et al.
# Submitted via: audiograbber 1.83.01
#
DISCID=5f08cf09
DTITLE=Son Henry band - Glenn Highway Blues
DYEAR=1900
DGENRE=Blues
TTITLE0=Glenn Highway Blues
TTITLE1=Hummingbird
TTITLE2=Second Glance
TTITLE3=Memphis Train
TTITLE4=Heartache In My House
TTITLE5=She's My Home
TTITLE6=Peach Street Blues
TTITLE7=Long Way Home
TTITLE8=Cold, Cold World
EXTD=
EXTT0=
EXTT1=
EXTT2=
EXTT3=
EXTT4=
EXTT5=
EXTT6=
EXTT7=
EXTT8=
PLAYORDER=
